<!DOCTYPE svg PUBLIC "-//W3C//DTD SVG 1.1//EN" "http://www.w3.org/Graphics/SVG/1.1/DTD/svg11.dtd">

<!-- Uploaded to: SVG Repo, www.svgrepo.com, Transformed by: SVG Repo Mixer Tools -->
<svg version="1.1" id="Layer_1" xmlns="http://www.w3.org/2000/svg" xmlns:xlink="http://www.w3.org/1999/xlink" viewBox="0 0 512.00 512.00" xml:space="preserve" width="227px" height="227px" fill="#000000"><g id="SVGRepo_bgCarrier" stroke-width="0"></g><g id="SVGRepo_tracerCarrier" stroke-linecap="round" stroke-linejoin="round"></g><g id="SVGRepo_iconCarrier"> <path style="fill:#394049;" d="M334.027,266.537H13.559C6.071,266.537,0,260.466,0,252.977V27.774 c0-7.488,6.071-13.559,13.559-13.559h320.468c7.488,0,13.559,6.071,13.559,13.559v225.204 C347.586,260.466,341.515,266.537,334.027,266.537z"></path> <rect x="33.967" y="48.181" style="fill:#8CCFDE;" width="279.655" height="184.391"></rect> <path style="opacity:0.2;enable-background:new ;" d="M28.821,251.274c-7.488,0-13.559-6.071-13.559-13.559V14.214h-1.703 C6.071,14.214,0,20.285,0,27.774v225.204c0,7.488,6.071,13.559,13.559,13.559h320.468c7.488,0,13.559-6.071,13.559-13.559v-1.703 L28.821,251.274L28.821,251.274z"></path> <path style="fill:#394049;" d="M473.297,497.784c-9.905,0-19.809-3.779-27.367-11.336L232.791,273.31 c-15.114-15.114-15.114-39.619,0-54.733c15.114-15.115,39.619-15.115,54.733,0l213.139,213.138 c15.114,15.114,15.114,39.619,0,54.733C493.108,494.006,483.202,497.784,473.297,497.784z"></path> <path style="opacity:0.15;enable-background:new ;" d="M483.249,487.832c-9.905,0-19.809-3.778-27.367-11.335L242.743,263.357 c-13.414-13.414-14.913-34.22-4.516-49.298c-1.911,1.318-3.735,2.816-5.436,4.517c-15.114,15.114-15.114,39.619,0,54.733 l213.141,213.139c7.557,7.557,17.462,11.336,27.367,11.336c9.905,0,19.81-3.779,27.367-11.336c1.701-1.701,3.199-3.524,4.516-5.435 C498.597,485.552,490.926,487.832,483.249,487.832z"></path> <circle style="fill:#0069A3;" cx="261.166" cy="245.939" r="158.504"></circle> <circle style="opacity:0.15;enable-background:new ;" cx="269.272" cy="237.833" r="105.57"></circle> <path style="opacity:0.15;enable-background:new ;" d="M274.664,390.948c-87.542,0-158.509-70.967-158.509-158.509 c0-40.335,15.074-77.145,39.886-105.121c-32.744,29.038-53.388,71.417-53.388,118.623c0,87.541,70.966,158.509,158.509,158.509 c47.206,0,89.585-20.644,118.623-53.387C351.807,375.874,314.999,390.948,274.664,390.948z"></path> <circle style="fill:#FFFFFF;" cx="261.166" cy="245.939" r="105.57"></circle> <path style="fill:#8CCFDE;" d="M261.162,140.375c-58.303,0-105.566,47.264-105.566,105.566c0,13.662,2.595,26.717,7.319,38.701 h196.493c4.724-11.983,7.319-25.038,7.319-38.701C366.728,187.639,319.464,140.375,261.162,140.375z"></path> <path style="fill:#4A5058;" d="M314.375,262.529H205.941c-9.16,0-16.587-7.427-16.587-16.587c0-9.16,7.427-16.587,16.587-16.587 h108.434c9.16,0,16.587,7.426,16.587,16.587S323.535,262.529,314.375,262.529z"></path> <path style="opacity:0.2;fill:#FFFFFF;enable-background:new ;" d="M403.731,176.601c-14.054-28.841-36.6-52.781-64.386-68.567 c-27.775,3.999-49.123,27.885-49.123,56.767c0,31.682,25.683,57.365,57.365,57.365C375.222,222.165,398.289,202.621,403.731,176.601 z"></path> <path style="opacity:0.15;enable-background:new ;" d="M268.902,343.767c-58.303,0-105.566-47.264-105.566-105.566 c0-27.183,10.276-51.962,27.152-70.673c-21.424,19.322-34.892,47.294-34.892,78.414c0,58.303,47.264,105.566,105.566,105.566 c31.12,0,59.094-13.469,78.414-34.892C320.864,333.491,296.084,343.767,268.902,343.767z"></path> </g></svg>